<?xml version="1.0" standalone="no"?>
<!DOCTYPE svg PUBLIC "-//W3C//DTD SVG 20010904//EN"
 "http://www.w3.org/TR/2001/REC-SVG-20010904/DTD/svg10.dtd">
<svg width="50px" height="39px" viewBox="0 0 530.000000 530.000000" version="1.0" xmlns="http://www.w3.org/2000/svg" preserveAspectRatio="xMidYMid meet">
<metadata>
Created by potrace 1.15, written by Peter Selinger 2001-2017
</metadata>
<g transform="translate(0.000000,530.000000) scale(0.100000,-0.100000)"
fill="#000000" stroke="none">
<path d="M0 2650 l0 -2650 2650 0 2650 0 0 2650 0 2650 -2650 0 -2650 0 0
-2650z m2820 1647 c371 -108 645 -383 741 -747 126 -479 -116 -958 -599 -1190
-40 -19 -71 -39 -70 -45 2 -7 151 -286 333 -620 356 -658 355 -656 301 -701
l-27 -24 -295 0 c-270 0 -295 1 -311 18 -10 10 -162 305 -338 655 l-320 636
-257 1 -258 0 0 260 0 260 405 0 c257 0 423 4 457 11 115 24 244 114 309 217
92 146 92 357 -1 502 -40 62 -119 134 -182 166 -101 51 -131 54 -575 54 l-413
0 0 291 0 290 503 -3 502 -4 95 -27z"/>
</g>
</svg>
