<svg id="Lager_1" data-name="Lager 1" xmlns="http://www.w3.org/2000/svg" viewBox="0 0 810.08 124.67"><defs><style>.cls-1{fill:#010101;}</style></defs><title>Resultify_logo_text</title><path class="cls-1" d="M102.49,5a3.68,3.68,0,0,1,3.29-3.29h64.07A2.77,2.77,0,0,1,172.45,5l-2.08,14.2a3.7,3.7,0,0,1-3.46,3.29H122.58l-4,28.4H155.3a2.86,2.86,0,0,1,2.6,3.29l-2.08,14.37a3.82,3.82,0,0,1-3.46,3.29H115.65l-4.33,30.3h44.5c1.73,0,2.6,1.56,2.43,3.29l-1.91,14.2a3.7,3.7,0,0,1-3.46,3.29H88.81a2.56,2.56,0,0,1-2.42-3.29Z"/><path class="cls-1" d="M183.79,106l6.76-9.87a3.39,3.39,0,0,1,5.37-.69c2.42,2.08,10.9,9,21.47,9,7.79,0,15.41-6.07,15.41-14.72,0-7.62-5.2-12.64-14.89-19C206.48,63.2,193,53.33,193,36S204.92,0,232.11,0c16.1,0,27.87,8.31,30.82,11.26a4.91,4.91,0,0,1,.52,6.92l-6.76,9.53c-1.38,2.07-3.63,2.25-6.06.34-2.77-2.25-10.73-7.62-19.56-7.62s-14.72,6.76-14.72,13.51c0,6.93,4.67,10.39,15.06,17.32,11.43,7.61,26.67,17.14,26.67,36.19,0,20.26-15.76,37.22-41.39,37.22-17.83,0-30.13-10.38-32.9-13.5C182.76,110.13,181.89,108.57,183.79,106Z"/><path class="cls-1" d="M289.05,5a3.85,3.85,0,0,1,3.46-3.29h17.14A2.77,2.77,0,0,1,312.25,5l-10,70.82c-2.08,14.72,4.85,26,17,26,12.29,0,22.51-11.26,24.59-25.8l10-71a3.7,3.7,0,0,1,3.46-3.29h17.15A2.86,2.86,0,0,1,377,5l-10.21,72c-3.64,26.32-23.55,47.61-50.74,47.61-24.07,0-40.87-21.29-37.23-47.61Z"/><path class="cls-1" d="M406,5a3.7,3.7,0,0,1,3.46-3.29h16.8c1.56,0,2.6,1.56,2.43,3.29L415,102.16h38.26c1.74,0,2.6,1.56,2.43,3.29l-1.91,14.2a3.7,3.7,0,0,1-3.46,3.29H392.49a2.75,2.75,0,0,1-2.59-3.29Z"/><path class="cls-1" d="M490.26,22.51H467.4a2.75,2.75,0,0,1-2.59-3.29L466.89,5a3.68,3.68,0,0,1,3.29-3.29h68.74A2.77,2.77,0,0,1,541.52,5l-2.08,14.2A3.7,3.7,0,0,1,536,22.51H513.12l-13.68,97.14a3.86,3.86,0,0,1-3.46,3.29h-16.8a2.86,2.86,0,0,1-2.6-3.29Z"/><path class="cls-1" d="M570.17,5a3.68,3.68,0,0,1,3.29-3.29h17A2.65,2.65,0,0,1,592.85,5l-16.1,114.63a3.7,3.7,0,0,1-3.29,3.29h-17a2.66,2.66,0,0,1-2.43-3.29Z"/><path class="cls-1" d="M626.73,5A3.68,3.68,0,0,1,630,1.73h64.07A2.77,2.77,0,0,1,696.69,5l-2.08,14.2a3.7,3.7,0,0,1-3.46,3.29H646.82l-4.68,32.56H679a2.65,2.65,0,0,1,2.43,3.29l-1.91,14.19a3.84,3.84,0,0,1-3.46,3.29H639.2l-6.06,43.81c-.35,1.73-1.91,3.29-3.47,3.29H613.05a2.56,2.56,0,0,1-2.42-3.29Z"/><path class="cls-1" d="M743.06,64.59l-27-58.7c-1-2.25.52-4.16,2.94-4.16h16.28c1.9,0,2.6.69,3.29,2.43L756.74,44,785.83,3.29a3.46,3.46,0,0,1,2.77-1.56h19c2.6,0,3.12,2.25,1.56,4.5L765.57,64.42,758,119.65a3.85,3.85,0,0,1-3.46,3.29h-16.8c-1.73,0-2.6-1.56-2.42-3.29Z"/><path class="cls-1" d="M40.87,73.71C55.67,67.62,66,54.58,66,38.57A37.25,37.25,0,0,0,29,1.17H0V22.05H27.1A17.1,17.1,0,0,1,43.93,38.92c0,9.75-7.82,17.74-16.83,17.74H0V75.28H18.09L40.7,121.39a2.94,2.94,0,0,0,2.72,1.55H61.27c2.89,0,4.08-2.77,2.89-5Z"/></svg>